# xmcd
#
# Track frame offsets:
#	150
#	15537
#	33477
#	53830
#	79677
#	104177
#	127032
#	144327
#	160755
#	179070
#	194860
#	210640
#	229602
#	250975
#	264765
#	278682
#	305725
#
# Disc length: 4340 seconds
#
# Revision: 1
# Processed by: cddbd v1.5.1PL0 Copyright (c) Steve Scherf et al.
# Submitted via: CDex 1.50Beta5
#
DISCID=f710f211
DTITLE=Mr.ミスター - AOR Light Mellow〜BMG Edition
DYEAR=2001
DGENRE=Jazz
TTITLE0=ロバート・クラフト/シングル・ソロ
TTITLE1=トビー・ボー/イフ・ユー・ビリーヴ
TTITLE2=ボーイ・ミーツ・ガール/スター・トゥ・フォール
TTITLE3=Mr.ミスター/ブロウクン・ウィングズ
TTITLE4=グレッグ・フィリンゲンズ/レイジー・ニーナ
TTITLE5=マイケル・フランクス/君が微笑んだとき
TTITLE6=メリサ・マンチェスター/いつも一緒に
TTITLE7=ポール・デイヴィス/クール・ナイト
TTITLE8=エア・サプライ/オール・アウト・オブ・ラヴ
TTITLE9=イヴィー・サンズ/テイク・ア・リトル・ラヴ
TTITLE10=プレイヤー/オンリー・ハーツ
TTITLE11=フランク・ウェーバー/テイク・イット・トゥ・ザ・リミット
TTITLE12=エアプレイ/貴方には何も出来ない
TTITLE13=ジョン・バレンティ/アイ・ウォント・チェンジ
TTITLE14=FCC/レット・ザ・ラヴ・オン・スルー
TTITLE15=チャーム/ジョージー・ポージー(リミックス・ヴァージョン)
TTITLE16=エリック・カルメン/雄々しき翼
EXTD=
EXTT0=
EXTT1=
EXTT2=
EXTT3=
EXTT4=
EXTT5=
EXTT6=
EXTT7=
EXTT8=
EXTT9=
EXTT10=
EXTT11=
EXTT12=
EXTT13=
EXTT14=
EXTT15=
EXTT16=
PLAYORDER=
